<mxfile host="app.diagrams.net" modified="2023-07-21T13:26:03.103Z" agent="Mozilla/5.0 (Windows NT 10.0; Win64; x64) AppleWebKit/537.36 (KHTML, like Gecko) Chrome/114.0.0.0 Safari/537.36" version="21.6.5" etag="mqF42bOZwyQLeRu-ZDE4" type="github">
  <diagram name="Halaman-1" id="nW171lMLRgR5YmXYpDXi">
    <mxGraphModel>
      <root>
        <mxCell id="0" />
        <mxCell id="1" parent="0" />
      </root>
    </mxGraphModel>
  </diagram>
</mxfile>
